<svg width="325" height="325" viewBox="0 0 325 325" fill="none" xmlns="http://www.w3.org/2000/svg">
<path d="M1.7695 248L11.7535 225.6H16.8735L26.8895 248H21.4495L13.2575 228.224H15.3055L7.0815 248H1.7695ZM6.7615 243.2L8.1375 239.264H19.6575L21.0655 243.2H6.7615ZM40.293 248.256C38.8637 248.256 37.5837 247.979 36.453 247.424C35.3437 246.869 34.4797 246.027 33.861 244.896C33.2423 243.744 32.933 242.283 32.933 240.512V230.784H37.925V239.776C37.925 241.205 38.2237 242.261 38.821 242.944C39.4397 243.605 40.3037 243.936 41.413 243.936C42.181 243.936 42.8637 243.776 43.461 243.456C44.0583 243.115 44.5277 242.603 44.869 241.92C45.2103 241.216 45.381 240.341 45.381 239.296V230.784H50.373V248H45.637V243.264L46.501 244.64C45.925 245.835 45.0717 246.741 43.941 247.36C42.8317 247.957 41.6157 248.256 40.293 248.256ZM67.7977 248.256C65.9417 248.256 64.2884 247.883 62.8377 247.136C61.3871 246.368 60.2457 245.312 59.4137 243.968C58.6031 242.624 58.1977 241.099 58.1977 239.392C58.1977 237.664 58.6031 236.139 59.4137 234.816C60.2457 233.472 61.3871 232.427 62.8377 231.68C64.2884 230.912 65.9417 230.528 67.7977 230.528C69.6111 230.528 71.1897 230.912 72.5337 231.68C73.8777 232.427 74.8697 233.504 75.5097 234.912L71.6377 236.992C71.1897 236.181 70.6244 235.584 69.9417 235.2C69.2804 234.816 68.5551 234.624 67.7657 234.624C66.9124 234.624 66.1444 234.816 65.4617 235.2C64.7791 235.584 64.2351 236.128 63.8297 236.832C63.4457 237.536 63.2537 238.389 63.2537 239.392C63.2537 240.395 63.4457 241.248 63.8297 241.952C64.2351 242.656 64.7791 243.2 65.4617 243.584C66.1444 243.968 66.9124 244.16 67.7657 244.16C68.5551 244.16 69.2804 243.979 69.9417 243.616C70.6244 243.232 71.1897 242.624 71.6377 241.792L75.5097 243.904C74.8697 245.291 73.8777 246.368 72.5337 247.136C71.1897 247.883 69.6111 248.256 67.7977 248.256ZM90.8372 248.256C89.0026 248.256 87.3706 247.872 85.9412 247.104C84.5332 246.336 83.4132 245.291 82.5812 243.968C81.7706 242.624 81.3652 241.099 81.3652 239.392C81.3652 237.664 81.7706 236.139 82.5812 234.816C83.4132 233.472 84.5332 232.427 85.9412 231.68C87.3706 230.912 89.0026 230.528 90.8372 230.528C92.6506 230.528 94.2719 230.912 95.7012 231.68C97.1306 232.427 98.2506 233.461 99.0612 234.784C99.8719 236.107 100.277 237.643 100.277 239.392C100.277 241.099 99.8719 242.624 99.0612 243.968C98.2506 245.291 97.1306 246.336 95.7012 247.104C94.2719 247.872 92.6506 248.256 90.8372 248.256ZM90.8372 244.16C91.6692 244.16 92.4159 243.968 93.0772 243.584C93.7386 243.2 94.2612 242.656 94.6452 241.952C95.0292 241.227 95.2212 240.373 95.2212 239.392C95.2212 238.389 95.0292 237.536 94.6452 236.832C94.2612 236.128 93.7386 235.584 93.0772 235.2C92.4159 234.816 91.6692 234.624 90.8372 234.624C90.0052 234.624 89.2586 234.816 88.5972 235.2C87.9359 235.584 87.4026 236.128 86.9972 236.832C86.6132 237.536 86.4212 238.389 86.4212 239.392C86.4212 240.373 86.6132 241.227 86.9972 241.952C87.4026 242.656 87.9359 243.2 88.5972 243.584C89.2586 243.968 90.0052 244.16 90.8372 244.16ZM118.558 230.528C119.923 230.528 121.139 230.805 122.206 231.36C123.294 231.893 124.147 232.725 124.766 233.856C125.385 234.965 125.694 236.395 125.694 238.144V248H120.702V238.912C120.702 237.525 120.393 236.501 119.774 235.84C119.177 235.179 118.323 234.848 117.214 234.848C116.425 234.848 115.71 235.019 115.07 235.36C114.451 235.68 113.961 236.181 113.598 236.864C113.257 237.547 113.086 238.421 113.086 239.488V248H108.094V230.784H112.862V235.552L111.966 234.112C112.585 232.96 113.47 232.075 114.622 231.456C115.774 230.837 117.086 230.528 118.558 230.528ZM143.144 248.256C141.288 248.256 139.635 247.883 138.184 247.136C136.733 246.368 135.592 245.312 134.76 243.968C133.949 242.624 133.544 241.099 133.544 239.392C133.544 237.664 133.949 236.139 134.76 234.816C135.592 233.472 136.733 232.427 138.184 231.68C139.635 230.912 141.288 230.528 143.144 230.528C144.957 230.528 146.536 230.912 147.88 231.68C149.224 232.427 150.216 233.504 150.856 234.912L146.984 236.992C146.536 236.181 145.971 235.584 145.288 235.2C144.627 234.816 143.901 234.624 143.112 234.624C142.259 234.624 141.491 234.816 140.808 235.2C140.125 235.584 139.581 236.128 139.176 236.832C138.792 237.536 138.6 238.389 138.6 239.392C138.6 240.395 138.792 241.248 139.176 241.952C139.581 242.656 140.125 243.2 140.808 243.584C141.491 243.968 142.259 244.16 143.112 244.16C143.901 244.16 144.627 243.979 145.288 243.616C145.971 243.232 146.536 242.624 146.984 241.792L150.856 243.904C150.216 245.291 149.224 246.368 147.88 247.136C146.536 247.883 144.957 248.256 143.144 248.256ZM168.549 230.528C169.915 230.528 171.131 230.805 172.197 231.36C173.285 231.893 174.139 232.725 174.757 233.856C175.376 234.965 175.685 236.395 175.685 238.144V248H170.693V238.912C170.693 237.525 170.384 236.501 169.765 235.84C169.168 235.179 168.315 234.848 167.205 234.848C166.416 234.848 165.701 235.019 165.061 235.36C164.443 235.68 163.952 236.181 163.589 236.864C163.248 237.547 163.077 238.421 163.077 239.488V248H158.085V224.256H163.077V235.552L161.957 234.112C162.576 232.96 163.461 232.075 164.613 231.456C165.765 230.837 167.077 230.528 168.549 230.528ZM193.359 248.256C191.397 248.256 189.669 247.872 188.175 247.104C186.703 246.336 185.562 245.291 184.751 243.968C183.941 242.624 183.535 241.099 183.535 239.392C183.535 237.664 183.93 236.139 184.719 234.816C185.53 233.472 186.629 232.427 188.015 231.68C189.402 230.912 190.97 230.528 192.719 230.528C194.405 230.528 195.919 230.891 197.263 231.616C198.629 232.32 199.706 233.344 200.495 234.688C201.285 236.011 201.679 237.6 201.679 239.456C201.679 239.648 201.669 239.872 201.647 240.128C201.626 240.363 201.605 240.587 201.583 240.8H187.599V237.888H198.959L197.039 238.752C197.039 237.856 196.858 237.077 196.495 236.416C196.133 235.755 195.631 235.243 194.991 234.88C194.351 234.496 193.605 234.304 192.751 234.304C191.898 234.304 191.141 234.496 190.479 234.88C189.839 235.243 189.338 235.765 188.975 236.448C188.613 237.109 188.431 237.899 188.431 238.816V239.584C188.431 240.523 188.634 241.355 189.039 242.08C189.466 242.784 190.053 243.328 190.799 243.712C191.567 244.075 192.463 244.256 193.487 244.256C194.405 244.256 195.205 244.117 195.887 243.84C196.591 243.563 197.231 243.147 197.807 242.592L200.463 245.472C199.674 246.368 198.682 247.061 197.487 247.552C196.293 248.021 194.917 248.256 193.359 248.256ZM217.579 254.464C215.957 254.464 214.389 254.261 212.875 253.856C211.381 253.472 210.133 252.885 209.131 252.096L211.115 248.512C211.84 249.109 212.757 249.579 213.867 249.92C214.997 250.283 216.107 250.464 217.195 250.464C218.965 250.464 220.245 250.069 221.035 249.28C221.845 248.491 222.251 247.317 222.251 245.76V243.168L222.571 238.848L222.507 234.496V230.784H227.243V245.12C227.243 248.32 226.411 250.677 224.747 252.192C223.083 253.707 220.693 254.464 217.579 254.464ZM216.811 247.168C215.211 247.168 213.76 246.827 212.459 246.144C211.179 245.44 210.144 244.469 209.355 243.232C208.587 241.973 208.203 240.512 208.203 238.848C208.203 237.163 208.587 235.701 209.355 234.464C210.144 233.205 211.179 232.235 212.459 231.552C213.76 230.869 215.211 230.528 216.811 230.528C218.261 230.528 219.541 230.827 220.651 231.424C221.76 232 222.624 232.907 223.243 234.144C223.861 235.36 224.171 236.928 224.171 238.848C224.171 240.747 223.861 242.315 223.243 243.552C222.624 244.768 221.76 245.675 220.651 246.272C219.541 246.869 218.261 247.168 216.811 247.168ZM217.803 243.072C218.677 243.072 219.456 242.901 220.139 242.56C220.821 242.197 221.355 241.696 221.739 241.056C222.123 240.416 222.315 239.68 222.315 238.848C222.315 237.995 222.123 237.259 221.739 236.64C221.355 236 220.821 235.509 220.139 235.168C219.456 234.805 218.677 234.624 217.803 234.624C216.928 234.624 216.149 234.805 215.467 235.168C214.784 235.509 214.24 236 213.835 236.64C213.451 237.259 213.259 237.995 213.259 238.848C213.259 239.68 213.451 240.416 213.835 241.056C214.24 241.696 214.784 242.197 215.467 242.56C216.149 242.901 216.928 243.072 217.803 243.072ZM246.929 248V244.64L246.609 243.904V237.888C246.609 236.821 246.278 235.989 245.617 235.392C244.977 234.795 243.985 234.496 242.641 234.496C241.724 234.496 240.817 234.645 239.921 234.944C239.046 235.221 238.3 235.605 237.681 236.096L235.889 232.608C236.828 231.947 237.958 231.435 239.281 231.072C240.604 230.709 241.948 230.528 243.313 230.528C245.937 230.528 247.974 231.147 249.425 232.384C250.876 233.621 251.601 235.552 251.601 238.176V248H246.929ZM241.681 248.256C240.337 248.256 239.185 248.032 238.225 247.584C237.265 247.115 236.529 246.485 236.017 245.696C235.505 244.907 235.249 244.021 235.249 243.04C235.249 242.016 235.494 241.12 235.985 240.352C236.497 239.584 237.297 238.987 238.385 238.56C239.473 238.112 240.892 237.888 242.641 237.888H247.217V240.8H243.185C242.012 240.8 241.201 240.992 240.753 241.376C240.326 241.76 240.113 242.24 240.113 242.816C240.113 243.456 240.358 243.968 240.849 244.352C241.361 244.715 242.054 244.896 242.929 244.896C243.761 244.896 244.508 244.704 245.169 244.32C245.83 243.915 246.31 243.328 246.609 242.56L247.377 244.864C247.014 245.973 246.353 246.816 245.393 247.392C244.433 247.968 243.196 248.256 241.681 248.256ZM271.063 230.528C272.428 230.528 273.644 230.805 274.711 231.36C275.799 231.893 276.652 232.725 277.271 233.856C277.89 234.965 278.199 236.395 278.199 238.144V248H273.207V238.912C273.207 237.525 272.898 236.501 272.279 235.84C271.682 235.179 270.828 234.848 269.719 234.848C268.93 234.848 268.215 235.019 267.575 235.36C266.956 235.68 266.466 236.181 266.103 236.864C265.762 237.547 265.591 238.421 265.591 239.488V248H260.599V230.784H265.367V235.552L264.471 234.112C265.09 232.96 265.975 232.075 267.127 231.456C268.279 230.837 269.591 230.528 271.063 230.528ZM294.244 248.256C292.217 248.256 290.639 247.744 289.508 246.72C288.377 245.675 287.812 244.128 287.812 242.08V226.976H292.804V242.016C292.804 242.741 292.996 243.307 293.38 243.712C293.764 244.096 294.287 244.288 294.948 244.288C295.737 244.288 296.409 244.075 296.964 243.648L298.308 247.168C297.796 247.531 297.177 247.808 296.452 248C295.748 248.171 295.012 248.256 294.244 248.256ZM285.156 235.008V231.168H297.092V235.008H285.156ZM313.603 248.256C311.64 248.256 309.912 247.872 308.419 247.104C306.947 246.336 305.806 245.291 304.995 243.968C304.184 242.624 303.779 241.099 303.779 239.392C303.779 237.664 304.174 236.139 304.963 234.816C305.774 233.472 306.872 232.427 308.259 231.68C309.646 230.912 311.214 230.528 312.963 230.528C314.648 230.528 316.163 230.891 317.507 231.616C318.872 232.32 319.95 233.344 320.739 234.688C321.528 236.011 321.923 237.6 321.923 239.456C321.923 239.648 321.912 239.872 321.891 240.128C321.87 240.363 321.848 240.587 321.827 240.8H307.843V237.888H319.203L317.283 238.752C317.283 237.856 317.102 237.077 316.739 236.416C316.376 235.755 315.875 235.243 315.235 234.88C314.595 234.496 313.848 234.304 312.995 234.304C312.142 234.304 311.384 234.496 310.723 234.88C310.083 235.243 309.582 235.765 309.219 236.448C308.856 237.109 308.675 237.899 308.675 238.816V239.584C308.675 240.523 308.878 241.355 309.283 242.08C309.71 242.784 310.296 243.328 311.043 243.712C311.811 244.075 312.707 244.256 313.731 244.256C314.648 244.256 315.448 244.117 316.131 243.84C316.835 243.563 317.475 243.147 318.051 242.592L320.707 245.472C319.918 246.368 318.926 247.061 317.731 247.552C316.536 248.021 315.16 248.256 313.603 248.256Z" fill="#23B2FF"/>
<g clip-path="url(#clip0_2102_12)">
<path d="M196.459 74.4435C198.626 74.0215 201.619 73.622 204.765 73.7877C207.891 73.9523 211.407 74.6867 214.4 76.7452C217.491 78.8704 219.738 82.2128 220.545 86.9902L220.821 88.6937C222.19 97.5082 223.403 110.629 224.289 121.736C224.764 127.681 225.147 133.086 225.412 137.004C225.544 138.963 225.646 140.551 225.716 141.65C225.751 142.2 225.778 142.627 225.796 142.917C225.804 143.062 225.811 143.174 225.815 143.248C225.817 143.286 225.82 143.314 225.821 143.333C225.822 143.343 225.822 143.35 225.822 143.355V143.362C225.814 143.363 225.667 143.372 222.811 143.542L221.298 146.139C221.297 146.139 221.296 146.138 221.295 146.137C221.293 146.136 221.289 146.135 221.286 146.133C221.279 146.129 221.27 146.123 221.259 146.116C221.237 146.103 221.206 146.085 221.167 146.062C221.088 146.016 220.978 145.95 220.837 145.864C220.555 145.692 220.153 145.441 219.65 145.114C218.644 144.46 217.231 143.496 215.571 142.243C212.257 139.741 207.914 136.05 203.84 131.305C195.714 121.838 188.366 107.79 193.113 90.5879L196.022 91.3825L198.932 92.1781C194.928 106.688 200.973 118.72 208.428 127.404C212.146 131.734 216.141 135.136 219.219 137.459C219.28 137.506 219.342 137.551 219.403 137.596C219.399 137.533 219.396 137.47 219.391 137.407C219.128 133.506 218.746 128.126 218.274 122.211C217.386 111.081 216.186 98.1784 214.861 89.6349L214.594 87.9861C214.034 84.6765 212.613 82.8157 210.97 81.6859C209.23 80.4894 206.947 79.9166 204.446 79.7849C201.966 79.6543 199.501 79.9694 197.618 80.3361C196.687 80.5175 195.92 80.7077 195.394 80.8493C195.132 80.9198 194.932 80.9783 194.801 81.0174C194.762 81.0291 194.729 81.0387 194.703 81.0467C194.674 81.0583 194.638 81.073 194.595 81.0907C194.456 81.1477 194.244 81.2359 193.973 81.3546C193.431 81.5922 192.655 81.949 191.745 82.416C189.906 83.3593 187.601 84.7104 185.573 86.3852C183.511 88.0881 181.971 89.9321 181.303 91.7998C181.047 92.5142 180.902 93.2768 180.935 94.1026C181.235 94.6303 181.524 95.1543 181.813 95.6713C182.744 97.5257 183.676 99.3806 184.608 101.119L184.957 101.814C194.042 119.2 202.661 136.819 210.697 154.205L210.814 154.321C211.63 156.176 212.562 158.146 213.493 160.232C214.075 161.507 214.657 163.014 215.239 164.405C216.754 168.693 217.22 172.75 216.288 176.807C215.008 185.384 209.3 192.802 201.147 196.047C198.235 197.322 194.974 197.903 191.712 197.903C190.781 197.903 189.616 197.786 188.685 197.67C184.841 197.206 180.881 195.931 177.037 193.729C172.379 191.063 167.72 187.239 162.595 181.675C157.47 187.239 152.928 191.063 148.153 193.729C144.309 195.931 140.349 197.206 136.506 197.67C135.574 197.786 134.408 197.903 133.477 197.903C130.215 197.903 127.07 197.322 124.042 196.047C116.006 192.802 110.183 185.5 108.902 176.807C108.319 172.634 108.785 168.577 110.299 164.288C110.881 162.782 111.464 161.391 112.046 160.116C112.978 158.03 113.909 156.059 114.725 154.205L114.841 153.973C122.878 136.587 131.613 118.969 140.581 101.582L140.931 100.888C141.863 99.149 142.794 97.2941 143.726 95.4396C144.043 94.8721 144.368 94.2955 144.709 93.7156C144.77 92.8448 144.625 92.0565 144.36 91.3297C143.703 89.5335 142.184 87.7643 140.128 86.132C138.107 84.5283 135.808 83.2475 133.971 82.3564C133.062 81.9154 132.287 81.5792 131.745 81.3565C131.475 81.2455 131.264 81.1635 131.125 81.1102C131.062 81.0861 131.014 81.0674 130.982 81.0555C130.953 81.0465 130.91 81.034 130.854 81.0174C130.724 80.9783 130.523 80.9198 130.261 80.8493C129.735 80.7077 128.969 80.5175 128.037 80.3361C126.155 79.9694 123.69 79.6543 121.21 79.7849C118.708 79.9166 116.425 80.4895 114.685 81.6859C113.043 82.8157 111.621 84.6765 111.061 87.9861L110.795 89.6349C109.47 98.1784 108.269 111.081 107.381 122.211C106.909 128.126 106.528 133.506 106.265 137.407C106.26 137.47 106.257 137.533 106.253 137.596C106.314 137.551 106.376 137.506 106.437 137.459C109.514 135.136 113.51 131.734 117.227 127.404C124.682 118.72 130.729 106.688 126.724 92.1781L129.633 91.3825L132.543 90.5879C137.29 107.79 129.942 121.838 121.815 131.305C117.741 136.05 113.398 139.741 110.085 142.243C108.424 143.496 107.011 144.46 106.005 145.114C105.502 145.441 105.1 145.692 104.819 145.864C104.678 145.95 104.567 146.016 104.489 146.062C104.45 146.085 104.419 146.103 104.397 146.116C104.385 146.122 104.376 146.129 104.369 146.133C104.366 146.134 104.362 146.136 104.36 146.137C104.359 146.138 104.358 146.139 104.357 146.139L102.845 143.542C100.006 143.373 99.8428 143.363 99.8335 143.362V143.355C99.8338 143.35 99.8339 143.343 99.8345 143.333C99.8356 143.314 99.8381 143.286 99.8404 143.248C99.8449 143.174 99.8511 143.062 99.86 142.917C99.8779 142.627 99.9048 142.2 99.9396 141.65C100.009 140.551 100.112 138.963 100.244 137.004C100.508 133.086 100.891 127.681 101.366 121.736C102.252 110.629 103.467 97.5082 104.836 88.6937L105.111 86.9902C105.918 82.2129 108.165 78.8704 111.255 76.7452C114.248 74.6868 117.765 73.9523 120.891 73.7877C124.037 73.622 127.03 74.0215 129.196 74.4435C130.289 74.6564 131.196 74.8798 131.837 75.0524C132.158 75.1388 132.414 75.2133 132.595 75.2674C132.685 75.2945 132.757 75.3157 132.809 75.3319C132.835 75.34 132.856 75.3474 132.872 75.3525C132.879 75.3549 132.886 75.3566 132.891 75.3583C132.894 75.3592 132.896 75.3606 132.898 75.3613C132.899 75.3616 132.901 75.3621 132.901 75.3622C132.9 75.3691 132.858 75.502 131.963 78.2152L132.903 75.3622C132.931 75.3714 132.96 75.3815 132.987 75.3915L131.963 78.2152C132.942 75.5179 132.986 75.3976 132.99 75.3925L132.991 75.3935C132.993 75.3941 132.996 75.3946 132.998 75.3955C133.003 75.3973 133.01 75.3995 133.018 75.4023C133.033 75.4079 133.054 75.4153 133.08 75.4248C133.131 75.4439 133.204 75.4712 133.294 75.5059C133.475 75.5753 133.732 75.6759 134.05 75.8069C134.687 76.0688 135.577 76.4547 136.615 76.9583C138.673 77.9565 141.397 79.46 143.889 81.4376C145.918 83.0479 147.965 85.1099 149.293 87.6274C152.971 84.1107 157.67 82.1101 162.828 82.1101C167.954 82.1101 172.798 84.1687 176.432 87.948C177.749 85.4644 179.739 83.3997 181.72 81.7641C184.205 79.7124 186.924 78.1332 188.98 77.0785C190.017 76.5468 190.906 76.1374 191.542 75.8587C191.86 75.7192 192.117 75.6123 192.298 75.5382C192.388 75.5012 192.46 75.4725 192.511 75.4521C192.537 75.442 192.558 75.4337 192.573 75.4277C192.58 75.4247 192.587 75.4218 192.592 75.4199C192.595 75.419 192.597 75.4176 192.598 75.417L192.601 75.416C192.603 75.4165 192.623 75.4662 193.636 78.0706L192.603 75.416C192.652 75.397 192.702 75.3786 192.753 75.3622L193.692 78.2152C192.798 75.5013 192.755 75.369 192.754 75.3622C192.755 75.3621 192.756 75.3616 192.757 75.3613C192.759 75.3606 192.762 75.3592 192.764 75.3583C192.77 75.3566 192.776 75.3549 192.784 75.3525C192.8 75.3474 192.821 75.34 192.847 75.3319C192.899 75.3157 192.971 75.2945 193.061 75.2674C193.242 75.2133 193.497 75.1388 193.818 75.0524C194.459 74.8798 195.366 74.6564 196.459 74.4435ZM162.945 89.76C159.334 89.76 156.072 91.267 153.626 94.0488C152.345 95.5556 151.297 97.2944 150.365 99.1488C149.434 100.887 148.502 102.742 147.57 104.48L147.221 105.175C138.252 122.33 129.633 139.948 121.597 157.218L121.48 157.451C120.548 159.421 119.617 161.391 118.801 163.246C118.219 164.636 117.636 165.796 117.287 166.955C116.122 170.2 115.89 173.098 116.239 175.995C117.054 182.022 121.131 187.239 126.838 189.557C129.517 190.599 132.545 191.064 135.689 190.716C138.601 190.368 141.513 189.441 144.541 187.703C148.734 185.384 153.045 181.79 157.82 176.459C150.249 167.07 145.473 158.377 143.726 150.727C142.794 147.25 142.678 143.889 143.144 140.875C143.61 137.978 144.658 135.312 146.289 132.994C149.899 127.894 155.956 124.764 162.711 124.764C169.466 124.764 175.524 127.778 179.134 132.994C180.765 135.312 181.812 137.978 182.278 140.875C182.627 143.889 182.512 147.134 181.697 150.727C179.95 158.377 175.29 166.955 167.603 176.344C172.495 181.675 176.688 185.268 180.88 187.586C183.909 189.324 186.821 190.252 189.732 190.599C192.761 190.948 195.789 190.599 198.584 189.44C204.292 187.123 208.368 181.906 209.184 175.879C209.649 172.866 209.3 169.968 208.368 166.955C208.019 165.796 207.437 164.636 206.854 163.246C205.922 161.391 205.107 159.305 204.175 157.451V157.334C196.138 140.064 187.52 122.446 178.668 105.175L178.318 104.48C177.386 102.742 176.455 100.887 175.523 99.1488C174.591 97.2944 173.543 95.5556 172.262 94.0488C169.816 91.2671 166.555 89.7602 162.945 89.76ZM162.711 131.834C158.402 131.835 154.674 133.805 152.461 136.934C151.53 138.325 150.831 139.948 150.598 141.803C150.249 143.889 150.366 146.207 150.948 148.873C152.346 155.132 156.422 162.551 162.711 170.432C169 162.435 173.077 155.016 174.475 148.873C175.057 146.323 175.174 143.889 174.825 141.803C174.592 139.948 173.892 138.325 172.96 136.934C170.864 133.689 167.02 131.834 162.711 131.834ZM102.845 143.542L104.355 146.14C103.394 146.693 102.204 146.677 101.26 146.096C100.315 145.516 99.7675 144.465 99.8335 143.362L102.845 143.542ZM225.822 143.362C225.889 144.465 225.34 145.516 224.396 146.096C223.451 146.677 222.262 146.693 221.3 146.14L222.811 143.542L225.822 143.362Z" fill="#23B2FF"/>
</g>
<defs>
<clipPath id="clip0_2102_12">
<rect width="127.725" height="125.105" fill="white" transform="translate(98.9651 73.275)"/>
</clipPath>
</defs>
</svg>
